<?xml version="1.0" encoding="utf-8"?>
<!-- Generator: Adobe Illustrator 20.1.0, SVG Export Plug-In . SVG Version: 6.00 Build 0)  -->
<svg version="1.1" xmlns="http://www.w3.org/2000/svg" xmlns:xlink="http://www.w3.org/1999/xlink" x="0px" y="0px"
	 viewBox="0 0 583.6 516.6" style="enable-background:new 0 0 583.6 516.6;" xml:space="preserve">
<style type="text/css">
	.st0{fill:#008AAF;stroke:#000000;stroke-miterlimit:10;}
	.st1{fill:#E2E2E2;stroke:#000000;stroke-linejoin:round;stroke-miterlimit:10;}
	.st2{fill:#E2E2E2;}
	.st3{fill:none;}
	.st4{fill:none;stroke:#666666;stroke-width:1.8325;stroke-miterlimit:10;}
	.st5{fill:url(#SVGID_1_);stroke:url(#SVGID_2_);stroke-width:1.8325;stroke-linejoin:round;stroke-miterlimit:10;}
	.st6{fill:url(#SVGID_3_);stroke:url(#SVGID_4_);stroke-width:1.8325;stroke-linejoin:round;stroke-miterlimit:10;}
	.st7{fill:#E2E2E2;stroke:#000000;stroke-miterlimit:10;}
	.st8{fill:#FFFFFF;}
	.st9{fill:none;stroke:#666666;stroke-width:1.6007;stroke-miterlimit:10;}
	.st10{fill:url(#SVGID_5_);stroke:url(#SVGID_6_);stroke-width:1.6007;stroke-linejoin:round;stroke-miterlimit:10;}
	.st11{fill:url(#SVGID_7_);stroke:#666666;stroke-width:1.8325;stroke-linejoin:round;stroke-miterlimit:10;}
	.st12{fill:url(#SVGID_8_);stroke:#008AAF;stroke-width:9;stroke-miterlimit:10;}
	.st13{fill:url(#SVGID_9_);stroke:url(#SVGID_10_);stroke-width:1.8325;stroke-linejoin:round;stroke-miterlimit:10;}
	.st14{fill:url(#SVGID_11_);stroke:url(#SVGID_12_);stroke-width:1.8325;stroke-linejoin:round;stroke-miterlimit:10;}
	.st15{fill:url(#SVGID_13_);stroke:url(#SVGID_14_);stroke-width:1.6007;stroke-linejoin:round;stroke-miterlimit:10;}
	.st16{fill:url(#SVGID_15_);stroke:url(#SVGID_16_);stroke-width:1.6007;stroke-linejoin:round;stroke-miterlimit:10;}
	.st17{fill:none;stroke:#666666;stroke-width:1.7733;stroke-miterlimit:10;}
	.st18{fill:url(#SVGID_17_);stroke:url(#SVGID_18_);stroke-width:1.7733;stroke-linejoin:round;stroke-miterlimit:10;}
	.st19{fill:url(#SVGID_19_);stroke:url(#SVGID_20_);stroke-width:1.7733;stroke-linejoin:round;stroke-miterlimit:10;}
	.st20{fill:url(#SVGID_21_);stroke:url(#SVGID_22_);stroke-width:1.7733;stroke-linejoin:round;stroke-miterlimit:10;}
	.st21{fill:url(#SVGID_23_);stroke:url(#SVGID_24_);stroke-width:1.7733;stroke-linejoin:round;stroke-miterlimit:10;}
	.st22{fill:url(#SVGID_25_);stroke:url(#SVGID_26_);stroke-width:1.7733;stroke-linejoin:round;stroke-miterlimit:10;}
	.st23{fill:url(#SVGID_27_);stroke:url(#SVGID_28_);stroke-width:1.7733;stroke-linejoin:round;stroke-miterlimit:10;}
	.st24{fill:url(#SVGID_29_);stroke:url(#SVGID_30_);stroke-width:1.8325;stroke-linejoin:round;stroke-miterlimit:10;}
	.st25{fill:url(#SVGID_31_);stroke:url(#SVGID_32_);stroke-width:1.8325;stroke-linejoin:round;stroke-miterlimit:10;}
	.st26{fill:url(#SVGID_33_);stroke:#666666;stroke-width:1.8325;stroke-linejoin:round;stroke-miterlimit:10;}
	.st27{fill:url(#SVGID_34_);stroke:#666666;stroke-width:1.8325;stroke-linejoin:round;stroke-miterlimit:10;}
	.st28{fill:url(#SVGID_35_);stroke:#666666;stroke-width:1.8325;stroke-linejoin:round;stroke-miterlimit:10;}
	.st29{fill:url(#SVGID_36_);stroke:#666666;stroke-width:1.8325;stroke-linejoin:round;stroke-miterlimit:10;}
	.st30{opacity:0.23;fill:#808080;stroke:#1A1A1A;stroke-miterlimit:10;}
	.st31{fill:url(#SVGID_37_);stroke:url(#SVGID_38_);stroke-width:1.7733;stroke-linejoin:round;stroke-miterlimit:10;}
	.st32{fill:url(#SVGID_39_);stroke:url(#SVGID_40_);stroke-width:1.7733;stroke-linejoin:round;stroke-miterlimit:10;}
	.st33{fill:url(#SVGID_41_);stroke:url(#SVGID_42_);stroke-width:1.7733;stroke-linejoin:round;stroke-miterlimit:10;}
	.st34{fill:#FFFFFF;stroke:#000000;stroke-width:0.859;stroke-miterlimit:10;}
</style>
<g id="Layer_1">
	<rect x="-1845.2" y="583" class="st0" width="516.6" height="516.6"/>
	<rect x="-1845.2" class="st0" width="516.6" height="516.6"/>
	<rect x="-1239.2" class="st0" width="516.6" height="516.6"/>
	<rect x="-600.2" class="st0" width="516.6" height="516.6"/>
	<rect x="-1845.2" y="1185" class="st0" width="516.6" height="516.6"/>
	<rect x="-1206.2" y="583" class="st0" width="516.6" height="516.6"/>
</g>
<g id="Layer_2">
	<polygon class="st1" points="-1913.1,717.7 -2020.2,748.6 -2134.6,717.2 -2018.2,693.3 	"/>
	<polygon class="st2" points="-1810.9,687.1 -1810.9,687.3 -1811.2,687.2 	"/>
	<polygon class="st2" points="-1328.7,670.1 -1328.8,670.2 -1328.8,670.1 	"/>
	<line class="st3" x1="-1810.9" y1="687.3" x2="-1810.9" y2="687.3"/>
	<line class="st3" x1="-1810.9" y1="687.3" x2="-1810.9" y2="687.3"/>
	<line class="st4" x1="-1587" y1="760.5" x2="-1587" y2="760.5"/>
	<line class="st3" x1="-2013.6" y1="831.7" x2="-2013.6" y2="829.7"/>
	<linearGradient id="SVGID_1_" gradientUnits="userSpaceOnUse" x1="-1601.2455" y1="642.6587" x2="-1601.2455" y2="743.8769">
		<stop  offset="0" style="stop-color:#F9F1FF"/>
		<stop  offset="1" style="stop-color:#FFFFFF"/>
	</linearGradient>
	<linearGradient id="SVGID_2_" gradientUnits="userSpaceOnUse" x1="-1601.2455" y1="641.7424" x2="-1601.2455" y2="744.7932">
		<stop  offset="0" style="stop-color:#808080"/>
		<stop  offset="7.597744e-02" style="stop-color:#8D8D8D"/>
		<stop  offset="0.367" style="stop-color:#B8B8B8"/>
		<stop  offset="0.6284" style="stop-color:#D8D8D8"/>
		<stop  offset="0.8483" style="stop-color:#EBEBEB"/>
		<stop  offset="1" style="stop-color:#F2F2F2"/>
	</linearGradient>
	<polygon class="st5" points="-1398.3,687.2 -1594.7,743.9 -1804.2,686.4 -1591,642.7 	"/>
	<polygon class="st2" points="-2302.9,1270.1 -2302.9,1270.3 -2303.2,1270.2 	"/>
	<line class="st3" x1="-2302.9" y1="1270.3" x2="-2302.9" y2="1270.3"/>
	<line class="st3" x1="-2302.9" y1="1270.3" x2="-2302.9" y2="1270.3"/>
	<line class="st4" x1="-1573" y1="1365.5" x2="-1573" y2="1365.5"/>
	<linearGradient id="SVGID_3_" gradientUnits="userSpaceOnUse" x1="-1587.2455" y1="1247.6587" x2="-1587.2455" y2="1348.877">
		<stop  offset="0" style="stop-color:#F9F1FF"/>
		<stop  offset="1" style="stop-color:#FFFFFF"/>
	</linearGradient>
	<linearGradient id="SVGID_4_" gradientUnits="userSpaceOnUse" x1="-1587.2455" y1="1246.7424" x2="-1587.2455" y2="1349.7932">
		<stop  offset="0" style="stop-color:#808080"/>
		<stop  offset="7.597744e-02" style="stop-color:#8D8D8D"/>
		<stop  offset="0.367" style="stop-color:#B8B8B8"/>
		<stop  offset="0.6284" style="stop-color:#D8D8D8"/>
		<stop  offset="0.8483" style="stop-color:#EBEBEB"/>
		<stop  offset="1" style="stop-color:#F2F2F2"/>
	</linearGradient>
	<polygon class="st6" points="-1384.3,1292.2 -1580.7,1348.9 -1790.2,1291.4 -1577,1247.7 	"/>
	<line class="st3" x1="-1328.8" y1="670.3" x2="-1328.8" y2="670.3"/>
	<g>
		<polygon class="st7" points="-2402.2,768.6 -2282.8,728.8 -2183,768.6 -2289.6,805.3 		"/>
		<polygon class="st7" points="-2402.2,845.6 -2282.8,805.8 -2183,845.6 -2289.6,882.3 		"/>
		<line class="st7" x1="-2402.1" y1="768.7" x2="-2402.1" y2="845.7"/>
		<line class="st7" x1="-2289.1" y1="805.7" x2="-2289.1" y2="882.7"/>
		<line class="st7" x1="-2183.1" y1="768.7" x2="-2183.1" y2="845.7"/>
	</g>
	
		<text transform="matrix(1 0 0 1 -1804.1906 981.6415)" class="st8" style="font-family:'MuseoSansDisplay-Light'; font-size:108.0662px;">Firm Tofu</text>
	<polygon class="st2" points="-1801.5,118.6 -1801.5,118.7 -1801.9,118.7 	"/>
	<line class="st3" x1="-1801.5" y1="118.8" x2="-1801.5" y2="118.8"/>
	<line class="st3" x1="-1801.5" y1="118.8" x2="-1801.5" y2="118.8"/>
	<line class="st9" x1="-1576.1" y1="174.2" x2="-1576.1" y2="174.2"/>
	<linearGradient id="SVGID_5_" gradientUnits="userSpaceOnUse" x1="-1590.39" y1="84.9471" x2="-1590.39" y2="161.6293">
		<stop  offset="0" style="stop-color:#F9F1FF"/>
		<stop  offset="1" style="stop-color:#FFFFFF"/>
	</linearGradient>
	<linearGradient id="SVGID_6_" gradientUnits="userSpaceOnUse" x1="-1590.39" y1="84.1468" x2="-1590.39" y2="162.4297">
		<stop  offset="0" style="stop-color:#808080"/>
		<stop  offset="7.597744e-02" style="stop-color:#8D8D8D"/>
		<stop  offset="0.367" style="stop-color:#B8B8B8"/>
		<stop  offset="0.6284" style="stop-color:#D8D8D8"/>
		<stop  offset="0.8483" style="stop-color:#EBEBEB"/>
		<stop  offset="1" style="stop-color:#F2F2F2"/>
	</linearGradient>
	<polygon class="st10" points="-1386,118.7 -1583.8,161.6 -1794.8,118.1 -1580,84.9 	"/>
	
		<text transform="matrix(1 0 0 1 -1804.1906 408.9975)" class="st8" style="font-family:'MuseoSansDisplay-Light'; font-size:108.0662px;">Firm Tofu</text>
	<text transform="matrix(1 0 0 1 -1202.2312 408.9975)"><tspan x="0" y="0" class="st8" style="font-family:'MuseoSansDisplay-Light'; font-size:108.0662px;">Firm</tspan><tspan x="198.3" y="0" class="st8" style="font-family:'MuseoSansDisplay-Black'; font-size:108.0662px;">Tofu</tspan></text>
	<text transform="matrix(1 0 0 1 -563.2311 408.9975)"><tspan x="0" y="0" class="st8" style="font-family:'MuseoSansDisplay-Light'; font-size:108.0662px;">Firm</tspan><tspan x="198.3" y="0" class="st8" style="font-family:'MuseoSansDisplay-Black'; font-size:108.0662px;">Tofu</tspan></text>
	<polygon class="st2" points="-2825.9,927.1 -2825.9,927.3 -2826.2,927.2 	"/>
	<line class="st3" x1="-2825.9" y1="927.3" x2="-2825.9" y2="927.3"/>
	<line class="st3" x1="-2825.9" y1="927.3" x2="-2825.9" y2="927.3"/>
	<line class="st4" x1="-2602" y1="1000.5" x2="-2602" y2="1000.5"/>
	<linearGradient id="SVGID_7_" gradientUnits="userSpaceOnUse" x1="-2616.2456" y1="882.6587" x2="-2616.2456" y2="983.8769">
		<stop  offset="0" style="stop-color:#F9F1FF"/>
		<stop  offset="1" style="stop-color:#FFFFFF"/>
	</linearGradient>
	<polygon class="st11" points="-2413.3,927.2 -2609.7,983.9 -2819.2,926.4 -2606,882.7 	"/>
	
		<text transform="matrix(1 0 0 1 -1774.4214 1616.5042)" class="st8" style="font-family:'Paralucent-ExtraLight'; font-size:108.6664px;">Firm Tofu</text>
	
		<text transform="matrix(1 0 0 1 -1989.3724 1837.5135)" class="st8" style="font-family:'FilsonSoftMedium'; font-size:101.7834px;">Firm Tofu</text>
	<polygon class="st2" points="-1171.9,687.1 -1171.9,687.3 -1172.2,687.2 	"/>
	<line class="st3" x1="-1171.9" y1="687.3" x2="-1171.9" y2="687.3"/>
	<line class="st3" x1="-1171.9" y1="687.3" x2="-1171.9" y2="687.3"/>
	<line class="st4" x1="-948" y1="760.5" x2="-948" y2="760.5"/>
	<linearGradient id="SVGID_8_" gradientUnits="userSpaceOnUse" x1="-962.2455" y1="636.6587" x2="-962.2455" y2="737.8769">
		<stop  offset="0" style="stop-color:#F9F1FF"/>
		<stop  offset="1" style="stop-color:#FFFFFF"/>
	</linearGradient>
	<polygon class="st12" points="-759.3,681.2 -955.7,737.9 -1165.2,680.4 -952,636.7 	"/>
	
		<text transform="matrix(1.0937 0.3066 -8.400000e-04 1 -1176.7601 798.7681)" class="st8" style="font-family:'AcuminProExtraCond-Regular'; font-size:163.0336px;">FIRM</text>
	<g>
		<g>
			<path class="st8" d="M-934.9,754.9c-6.8,1.9-10.2,2.9-17,4.8c-0.2-3.9-0.3-5.9-0.5-9.9c14.5-4.2,29.1-8.3,43.6-12.5
				c0.2,4.1,0.4,6.1,0.6,10.1c-6.7,1.9-10.1,2.8-16.8,4.7c1.9,34.9,3.5,69.8,6.4,104.7c-3.9,1.1-5.8,1.7-9.7,2.9
				C-931.4,824.8-933.1,789.9-934.9,754.9z"/>
			<path class="st8" d="M-859,751.3c0.9,19.3,1.6,38.7,2.5,58c1,15.4-4.3,31.7-19.9,36.8c-16.3,5.4-23-11.8-23.2-24.8
				c-1.1-19.3-2-38.6-3-58c-1.4-14.8,5.2-31,20.4-35.3C-867,723.7-858.6,737.6-859,751.3z M-892.5,760.2c1,19.7,1.8,39.3,3,59
				c0.8,13.9,5.7,18.3,12.9,16.3c7.5-2.1,11-8.7,10.3-23.2c-1-19.5-1.7-39-2.7-58.4c-0.6-12.8-5-17.9-12.8-15.7
				C-889.8,740.5-893.2,747.4-892.5,760.2z"/>
			<path class="st8" d="M-847.4,719.4c11.6-3.5,23.3-7.1,34.8-10.8c0.3,4.3,0.5,6.4,0.7,10.6c-10.1,3.2-15.1,4.7-25.1,7.7
				c0.8,13,1.3,26.1,1.8,39.1c9.4-2.7,14.2-4,23.7-6.8c0.2,4,0.2,6.1,0.4,10.1c-9.5,2.7-14.2,4.1-23.7,6.7
				c0.7,18.6,1.5,37.1,2.5,55.7c-3.9,1.1-5.9,1.7-9.8,2.8C-844.2,796.2-845.1,757.8-847.4,719.4z"/>
			<path class="st8" d="M-794,702.6c2.2,30.4,3.2,60.8,4.3,91.3c0.4,9.7,3.8,15.8,11.9,13.5c8.5-2.4,11.1-9.6,10.7-20.1
				c-1.1-30.8-2.2-61.6-4.6-92.4c4-1.4,6.1-2.2,10.1-3.6c2.5,30.8,3.7,61.7,4.8,92.6c0.8,15-5.7,29.3-20.6,33.9
				c-14.9,4.6-21.9-7.8-22.3-21.1c-1.1-30.3-2.2-60.6-4.2-90.9C-800,704.6-798,703.9-794,702.6z"/>
		</g>
	</g>
</g>
<g id="Layer_3">
	<polygon class="st1" points="-2134.6,717.2 -2020.2,748.6 -2020.1,824.7 -2134.2,787.6 	"/>
	<polygon class="st1" points="-1913.1,717.7 -2020.2,748.6 -2020.1,824.7 -1914.2,788 	"/>
	<linearGradient id="SVGID_9_" gradientUnits="userSpaceOnUse" x1="-1804.1904" y1="784.8614" x2="-1594.3796" y2="784.8614">
		<stop  offset="0" style="stop-color:#D5CBD6"/>
		<stop  offset="0.5653" style="stop-color:#F2FCFF"/>
		<stop  offset="1" style="stop-color:#FFFFFF"/>
	</linearGradient>
	<linearGradient id="SVGID_10_" gradientUnits="userSpaceOnUse" x1="-1805.1067" y1="784.8614" x2="-1593.4634" y2="784.8614">
		<stop  offset="0" style="stop-color:#808080"/>
		<stop  offset="1" style="stop-color:#F2F2F2"/>
	</linearGradient>
	<polygon class="st13" points="-1804.2,686.4 -1594.7,743.9 -1594.4,883.3 -1803.6,815.3 	"/>
	<linearGradient id="SVGID_11_" gradientUnits="userSpaceOnUse" x1="-1594.6927" y1="785.2391" x2="-1398.3007" y2="785.2391">
		<stop  offset="0" style="stop-color:#FFFFFF"/>
		<stop  offset="0.5462" style="stop-color:#FDFFF5"/>
		<stop  offset="1" style="stop-color:#ECE1ED"/>
	</linearGradient>
	<linearGradient id="SVGID_12_" gradientUnits="userSpaceOnUse" x1="-1595.609" y1="785.2391" x2="-1397.3844" y2="785.2391">
		<stop  offset="0" style="stop-color:#F2F2F2"/>
		<stop  offset="1" style="stop-color:#808080"/>
	</linearGradient>
	<polygon class="st14" points="-1398.3,687.2 -1594.7,743.9 -1594.4,883.3 -1400.3,816.1 	"/>
	<linearGradient id="SVGID_13_" gradientUnits="userSpaceOnUse" x1="-1794.7799" y1="192.6789" x2="-1583.4752" y2="192.6789">
		<stop  offset="0" style="stop-color:#D5CBD6"/>
		<stop  offset="0.5653" style="stop-color:#F2FCFF"/>
		<stop  offset="1" style="stop-color:#FFFFFF"/>
	</linearGradient>
	<linearGradient id="SVGID_14_" gradientUnits="userSpaceOnUse" x1="-1795.5802" y1="192.6789" x2="-1582.6749" y2="192.6789">
		<stop  offset="0" style="stop-color:#808080"/>
		<stop  offset="1" style="stop-color:#F2F2F2"/>
	</linearGradient>
	<polygon class="st15" points="-1794.8,118.1 -1583.8,161.6 -1583.5,267.2 -1794.2,215.8 	"/>
	<linearGradient id="SVGID_15_" gradientUnits="userSpaceOnUse" x1="-1583.7906" y1="192.9651" x2="-1386.0002" y2="192.9651">
		<stop  offset="0" style="stop-color:#FFFFFF"/>
		<stop  offset="0.5462" style="stop-color:#FDFFF5"/>
		<stop  offset="1" style="stop-color:#ECE1ED"/>
	</linearGradient>
	<linearGradient id="SVGID_16_" gradientUnits="userSpaceOnUse" x1="-1584.5909" y1="192.9651" x2="-1385.1998" y2="192.9651">
		<stop  offset="0" style="stop-color:#F2F2F2"/>
		<stop  offset="1" style="stop-color:#808080"/>
	</linearGradient>
	<polygon class="st16" points="-1386,118.7 -1583.8,161.6 -1583.5,267.2 -1388,216.3 	"/>
	<g>
		<polygon class="st2" points="-1197.9,89.8 -1197.9,90 -1198.2,89.9 		"/>
		<line class="st3" x1="-1197.9" y1="90" x2="-1197.9" y2="90"/>
		<line class="st3" x1="-1197.9" y1="90" x2="-1197.9" y2="90"/>
		<line class="st17" x1="-966" y1="156.2" x2="-966" y2="156.2"/>
		<linearGradient id="SVGID_17_" gradientUnits="userSpaceOnUse" x1="-980.7489" y1="53.7243" x2="-980.7489" y2="141.1955">
			<stop  offset="0" style="stop-color:#F9F1FF"/>
			<stop  offset="1" style="stop-color:#FFFFFF"/>
		</linearGradient>
		<linearGradient id="SVGID_18_" gradientUnits="userSpaceOnUse" x1="-980.7489" y1="52.8376" x2="-980.7489" y2="142.0821">
			<stop  offset="0" style="stop-color:#808080"/>
			<stop  offset="7.597744e-02" style="stop-color:#8D8D8D"/>
			<stop  offset="0.367" style="stop-color:#B8B8B8"/>
			<stop  offset="0.6284" style="stop-color:#D8D8D8"/>
			<stop  offset="0.8483" style="stop-color:#EBEBEB"/>
			<stop  offset="1" style="stop-color:#F2F2F2"/>
		</linearGradient>
		<polygon class="st18" points="-770.6,89.9 -974,141.2 -1190.9,89.3 -957.7,53.7 		"/>
		<linearGradient id="SVGID_19_" gradientUnits="userSpaceOnUse" x1="-1190.9355" y1="178.2527" x2="-973.638" y2="178.2527">
			<stop  offset="0" style="stop-color:#D5CBD6"/>
			<stop  offset="0.5653" style="stop-color:#F2FCFF"/>
			<stop  offset="1" style="stop-color:#FFFFFF"/>
		</linearGradient>
		<linearGradient id="SVGID_20_" gradientUnits="userSpaceOnUse" x1="-1191.8223" y1="178.2527" x2="-972.7513" y2="178.2527">
			<stop  offset="0" style="stop-color:#808080"/>
			<stop  offset="1" style="stop-color:#F2F2F2"/>
		</linearGradient>
		<polygon class="st19" points="-1190.9,89.3 -974,141.2 -973.6,267.2 -1190.3,205.8 		"/>
		<linearGradient id="SVGID_21_" gradientUnits="userSpaceOnUse" x1="-973.9623" y1="178.5942" x2="-770.5622" y2="178.5942">
			<stop  offset="0" style="stop-color:#FFFFFF"/>
			<stop  offset="0.5462" style="stop-color:#FDFFF5"/>
			<stop  offset="1" style="stop-color:#ECE1ED"/>
		</linearGradient>
		<linearGradient id="SVGID_22_" gradientUnits="userSpaceOnUse" x1="-974.849" y1="178.5942" x2="-769.6755" y2="178.5942">
			<stop  offset="0" style="stop-color:#F2F2F2"/>
			<stop  offset="1" style="stop-color:#808080"/>
		</linearGradient>
		<polygon class="st20" points="-770.6,89.9 -974,141.2 -973.6,267.2 -772.7,206.5 		"/>
	</g>
	<g>
		<polygon class="st2" points="-558.9,89.8 -558.9,90 -559.2,89.9 		"/>
		<line class="st3" x1="-558.9" y1="90" x2="-558.9" y2="90"/>
		<line class="st3" x1="-558.9" y1="90" x2="-558.9" y2="90"/>
		<line class="st17" x1="-327" y1="156.2" x2="-327" y2="156.2"/>
		<linearGradient id="SVGID_23_" gradientUnits="userSpaceOnUse" x1="-341.7489" y1="53.7243" x2="-341.7489" y2="141.1955">
			<stop  offset="0" style="stop-color:#F9F1FF"/>
			<stop  offset="1" style="stop-color:#FFFFFF"/>
		</linearGradient>
		<linearGradient id="SVGID_24_" gradientUnits="userSpaceOnUse" x1="-341.7489" y1="52.8376" x2="-341.7489" y2="142.0821">
			<stop  offset="0" style="stop-color:#808080"/>
			<stop  offset="7.597744e-02" style="stop-color:#8D8D8D"/>
			<stop  offset="0.367" style="stop-color:#B8B8B8"/>
			<stop  offset="0.6284" style="stop-color:#D8D8D8"/>
			<stop  offset="0.8483" style="stop-color:#EBEBEB"/>
			<stop  offset="1" style="stop-color:#F2F2F2"/>
		</linearGradient>
		<polygon class="st21" points="-131.6,89.9 -335,141.2 -551.9,89.3 -318.7,53.7 		"/>
		<linearGradient id="SVGID_25_" gradientUnits="userSpaceOnUse" x1="-551.9355" y1="178.2527" x2="-334.638" y2="178.2527">
			<stop  offset="0" style="stop-color:#D5CBD6"/>
			<stop  offset="0.5653" style="stop-color:#F2FCFF"/>
			<stop  offset="1" style="stop-color:#FFFFFF"/>
		</linearGradient>
		<linearGradient id="SVGID_26_" gradientUnits="userSpaceOnUse" x1="-552.8222" y1="178.2527" x2="-333.7514" y2="178.2527">
			<stop  offset="0" style="stop-color:#808080"/>
			<stop  offset="1" style="stop-color:#F2F2F2"/>
		</linearGradient>
		<polygon class="st22" points="-551.9,89.3 -335,141.2 -334.6,267.2 -551.3,205.8 		"/>
		<linearGradient id="SVGID_27_" gradientUnits="userSpaceOnUse" x1="-334.9623" y1="178.5942" x2="-131.5622" y2="178.5942">
			<stop  offset="0" style="stop-color:#FFFFFF"/>
			<stop  offset="0.5462" style="stop-color:#FDFFF5"/>
			<stop  offset="1" style="stop-color:#ECE1ED"/>
		</linearGradient>
		<linearGradient id="SVGID_28_" gradientUnits="userSpaceOnUse" x1="-335.849" y1="178.5942" x2="-130.6756" y2="178.5942">
			<stop  offset="0" style="stop-color:#F2F2F2"/>
			<stop  offset="1" style="stop-color:#808080"/>
		</linearGradient>
		<polygon class="st23" points="-131.6,89.9 -335,141.2 -334.6,267.2 -133.7,206.5 		"/>
	</g>
	<linearGradient id="SVGID_29_" gradientUnits="userSpaceOnUse" x1="-1790.1904" y1="1389.8615" x2="-1580.3796" y2="1389.8615">
		<stop  offset="0" style="stop-color:#D5CBD6"/>
		<stop  offset="0.5653" style="stop-color:#F2FCFF"/>
		<stop  offset="1" style="stop-color:#FFFFFF"/>
	</linearGradient>
	<linearGradient id="SVGID_30_" gradientUnits="userSpaceOnUse" x1="-1791.1067" y1="1389.8615" x2="-1579.4634" y2="1389.8615">
		<stop  offset="0" style="stop-color:#808080"/>
		<stop  offset="1" style="stop-color:#F2F2F2"/>
	</linearGradient>
	<polygon class="st24" points="-1790.2,1291.4 -1580.7,1348.9 -1580.4,1488.3 -1789.6,1420.3 	"/>
	<linearGradient id="SVGID_31_" gradientUnits="userSpaceOnUse" x1="-1580.6927" y1="1390.2391" x2="-1384.3007" y2="1390.2391">
		<stop  offset="0" style="stop-color:#FFFFFF"/>
		<stop  offset="0.5462" style="stop-color:#FDFFF5"/>
		<stop  offset="1" style="stop-color:#ECE1ED"/>
	</linearGradient>
	<linearGradient id="SVGID_32_" gradientUnits="userSpaceOnUse" x1="-1581.609" y1="1390.2391" x2="-1383.3844" y2="1390.2391">
		<stop  offset="0" style="stop-color:#F2F2F2"/>
		<stop  offset="1" style="stop-color:#808080"/>
	</linearGradient>
	<polygon class="st25" points="-1384.3,1292.2 -1580.7,1348.9 -1580.4,1488.3 -1386.3,1421.1 	"/>
	<linearGradient id="SVGID_33_" gradientUnits="userSpaceOnUse" x1="-2819.1904" y1="1024.8615" x2="-2609.3796" y2="1024.8615">
		<stop  offset="0" style="stop-color:#D5CBD6"/>
		<stop  offset="0.5653" style="stop-color:#F2FCFF"/>
		<stop  offset="1" style="stop-color:#FFFFFF"/>
	</linearGradient>
	<polygon class="st26" points="-2819.2,926.4 -2609.7,983.9 -2609.4,1123.3 -2818.6,1055.3 	"/>
	<linearGradient id="SVGID_34_" gradientUnits="userSpaceOnUse" x1="-2609.6929" y1="1025.2391" x2="-2413.3005" y2="1025.2391">
		<stop  offset="0" style="stop-color:#FFFFFF"/>
		<stop  offset="0.5462" style="stop-color:#FDFFF5"/>
		<stop  offset="1" style="stop-color:#ECE1ED"/>
	</linearGradient>
	<polygon class="st27" points="-2413.3,927.2 -2609.7,983.9 -2609.4,1123.3 -2415.3,1056.1 	"/>
	<linearGradient id="SVGID_35_" gradientUnits="userSpaceOnUse" x1="-2486.1904" y1="389.8614" x2="-2276.3796" y2="389.8614">
		<stop  offset="0" style="stop-color:#D5CBD6"/>
		<stop  offset="0.5653" style="stop-color:#F2FCFF"/>
		<stop  offset="1" style="stop-color:#FFFFFF"/>
	</linearGradient>
	<polygon class="st28" points="-2486.2,291.4 -2276.7,348.9 -2276.4,488.3 -2485.6,420.3 	"/>
	<linearGradient id="SVGID_36_" gradientUnits="userSpaceOnUse" x1="-2499.6929" y1="267.2391" x2="-2303.3005" y2="267.2391">
		<stop  offset="0" style="stop-color:#FFFFFF"/>
		<stop  offset="0.5462" style="stop-color:#FDFFF5"/>
		<stop  offset="1" style="stop-color:#ECE1ED"/>
	</linearGradient>
	<polygon class="st29" points="-2303.3,169.2 -2499.7,225.9 -2499.4,365.3 -2305.3,298.1 	"/>
	<polygon class="st30" points="-2005.6,836.2 -1891.2,867.6 -1891.1,943.7 -2005.2,906.6 	"/>
	<g>
		<polygon class="st2" points="78.7,187.2 78.7,187.4 78.4,187.3 		"/>
		<line class="st3" x1="78.7" y1="187.4" x2="78.7" y2="187.4"/>
		<line class="st3" x1="78.7" y1="187.4" x2="78.7" y2="187.4"/>
		<line class="st17" x1="310.5" y1="253.6" x2="310.5" y2="253.6"/>
		<linearGradient id="SVGID_37_" gradientUnits="userSpaceOnUse" x1="295.8133" y1="151.0691" x2="295.8133" y2="238.5403">
			<stop  offset="0" style="stop-color:#F9F1FF"/>
			<stop  offset="1" style="stop-color:#FFFFFF"/>
		</linearGradient>
		<linearGradient id="SVGID_38_" gradientUnits="userSpaceOnUse" x1="295.8133" y1="150.1825" x2="295.8133" y2="239.427">
			<stop  offset="0" style="stop-color:#808080"/>
			<stop  offset="7.597744e-02" style="stop-color:#8D8D8D"/>
			<stop  offset="0.367" style="stop-color:#B8B8B8"/>
			<stop  offset="0.6284" style="stop-color:#D8D8D8"/>
			<stop  offset="0.8483" style="stop-color:#EBEBEB"/>
			<stop  offset="1" style="stop-color:#F2F2F2"/>
		</linearGradient>
		<polygon class="st31" points="506,187.3 302.6,238.5 85.6,186.6 318.9,151.1 		"/>
		<linearGradient id="SVGID_39_" gradientUnits="userSpaceOnUse" x1="85.6266" y1="275.5975" x2="302.9242" y2="275.5975">
			<stop  offset="0" style="stop-color:#D5CBD6"/>
			<stop  offset="0.5653" style="stop-color:#F2FCFF"/>
			<stop  offset="1" style="stop-color:#FFFFFF"/>
		</linearGradient>
		<linearGradient id="SVGID_40_" gradientUnits="userSpaceOnUse" x1="84.74" y1="275.5975" x2="303.8109" y2="275.5975">
			<stop  offset="0" style="stop-color:#808080"/>
			<stop  offset="1" style="stop-color:#F2F2F2"/>
		</linearGradient>
		<polygon class="st32" points="85.6,186.6 302.6,238.5 302.9,364.6 86.3,303.2 		"/>
		<linearGradient id="SVGID_41_" gradientUnits="userSpaceOnUse" x1="302.5999" y1="275.939" x2="506" y2="275.939">
			<stop  offset="0" style="stop-color:#FFFFFF"/>
			<stop  offset="0.5462" style="stop-color:#FDFFF5"/>
			<stop  offset="1" style="stop-color:#ECE1ED"/>
		</linearGradient>
		<linearGradient id="SVGID_42_" gradientUnits="userSpaceOnUse" x1="301.7133" y1="275.939" x2="506.8867" y2="275.939">
			<stop  offset="0" style="stop-color:#F2F2F2"/>
			<stop  offset="1" style="stop-color:#808080"/>
		</linearGradient>
		<polygon class="st33" points="506,187.3 302.6,238.5 302.9,364.6 503.9,303.8 		"/>
	</g>
	
		<rect x="-110.3" y="768" transform="matrix(6.123234e-17 -1 1 6.123234e-17 -831.2794 767.9608)" class="st34" width="157.3" height="63.3"/>
	<rect x="-246.9" y="790.7" class="st34" width="157.3" height="63.3"/>
</g>
</svg>
